<svg xmlns="http://www.w3.org/2000/svg" viewBox="0 0 265.72 351.9"><defs><style>.cls-1{fill:#fff;}</style></defs><title>Fichier 1</title><g id="Calque_2" data-name="Calque 2"><g id="Layer_1" data-name="Layer 1"><path class="cls-1" d="M132.85,212.9s73.9-53,0-140.5C59,159.9,132.85,212.9,132.85,212.9Z"/><path class="cls-1" d="M262,167.23c-13.33,16.67-36,18-36,18C238,84.5,173.35,0,173.35,0l-4.5,46.5c52.5,126-36,180-36,180s-88.49-54-36-180L92.35,0s-64.6,84.5-52.6,185.2c0,0-22.67-1.3-36-18C-6.75,154.11,1.9,231.5,67,300.14l27.75,2.51-16,9.19a291.43,291.43,0,0,0,54.09,40.06A291.51,291.51,0,0,0,187,311.84l-16-9.19,27.75-2.51C263.81,231.5,272.46,154.11,262,167.23ZM63.76,227.54l42,30S87.76,281.54,63.76,227.54ZM183,257.21l-6.72,11.37,2-7.9a13.88,13.88,0,0,1-18.3-3.14l23.27-16.63,6.05-24.08v19.76L202,227.54C195,243.08,188.63,252.16,183,257.21Z"/></g></g></svg>