<?xml version="1.0" encoding="utf-8"?>
<!-- Generator: Adobe Illustrator 16.0.3, SVG Export Plug-In . SVG Version: 6.00 Build 0)  -->
<!DOCTYPE svg PUBLIC "-//W3C//DTD SVG 1.1//EN" "http://www.w3.org/Graphics/SVG/1.1/DTD/svg11.dtd">
<svg version="1.1" id="Layer_1" xmlns="http://www.w3.org/2000/svg" xmlns:xlink="http://www.w3.org/1999/xlink" x="0px" y="0px"
	 width="265.719px" height="351.9px" viewBox="0 0 265.719 351.9" enable-background="new 0 0 265.719 351.9" xml:space="preserve">
<g>
	<path d="M-432.31-86.344c0,0-88.496-53.997-35.999-179.991l-4.5-46.498c0,0-64.604,84.502-52.604,185.2c0,0-22.667-1.301-36-17.968
		s4.205,112.667,129.103,184.667V-86.344z"/>
	<path d="M-432.31-99.934c0,0-73.897-53,0-140.5V-99.934z"/>
</g>
<g>
	<path d="M132.854,212.9c0,0,73.9-53,0-140.5C58.964,159.9,132.854,212.9,132.854,212.9z"/>
	<path d="M261.964,167.23c-13.33,16.67-36,17.97-36,17.97c12-100.7-52.61-185.2-52.61-185.2l-4.5,46.5
		c52.5,125.99-36,179.99-36,179.99s-88.49-54-36-179.99L92.354,0c0,0-64.6,84.5-52.6,185.2c0,0-22.67-1.3-36-17.97
		c-10.5-13.12-1.85,64.27,63.25,132.91l27.75,2.51l-15.99,9.19c15.26,14.329,33.17,28,54.09,40.06
		c20.92-12.06,38.84-25.73,54.1-40.06l-15.99-9.19l27.75-2.51C263.814,231.5,272.464,154.11,261.964,167.23z M63.764,227.54
		l41.99,30C105.754,257.54,87.764,281.54,63.764,227.54z M183.004,257.209l-6.72,11.37l1.98-7.899
		c-11.21,6.319-18.3-3.141-18.3-3.141l23.27-16.63l6.05-24.08v19.761l12.67-9.051C195.044,243.08,188.634,252.16,183.004,257.209z"
		/>
</g>
<polygon fill="#383838" points="-318.566,-64.583 -331.566,-12.833 -318.566,-34.833 "/>
<g>
	<path stroke="#020202" stroke-miterlimit="10" d="M-177.286-299.634l-4.5-46.5c0,0-64.6,84.5-52.6,185.2c0,0-22.67-1.3-36-17.97
		c-10.5-13.12-1.85,64.27,63.25,132.91l27.75,2.51l-15.99,9.19c15.26,14.329,33.17,28,54.09,40.06v-125.41
		C-141.286-119.644-229.776-173.644-177.286-299.634z M-210.376-118.594l41.99,30C-168.386-88.594-186.376-64.594-210.376-118.594z"
		/>
	<path stroke="#020202" stroke-miterlimit="10" d="M-177.286-299.634l-4.5-46.5c0,0-64.6,84.5-52.6,185.2c0,0-22.67-1.3-36-17.97
		c-10.5-13.12-1.85,64.27,63.25,132.91l27.75,2.51l-15.99,9.19c15.26,14.329,33.17,28,54.09,40.06v-125.41
		C-141.286-119.644-229.776-173.644-177.286-299.634z M-210.376-118.594l41.99,30C-168.386-88.594-186.376-64.594-210.376-118.594z"
		/>
	<path stroke="#020202" stroke-miterlimit="10" d="M-177.286-299.634l-4.5-46.5c0,0-64.6,84.5-52.6,185.2c0,0-22.67-1.3-36-17.97
		c-10.5-13.12-1.85,64.27,63.25,132.91l27.75,2.51l-15.99,9.19c15.26,14.329,33.17,28,54.09,40.06v-125.41
		C-141.286-119.644-229.776-173.644-177.286-299.634z M-210.376-118.594l41.99,30C-168.386-88.594-186.376-64.594-210.376-118.594z"
		/>
	<path stroke="#020202" stroke-miterlimit="10" d="M-177.286-299.634l-4.5-46.5c0,0-64.6,84.5-52.6,185.2c0,0-22.67-1.3-36-17.97
		c-10.5-13.12-1.85,64.27,63.25,132.91l27.75,2.51l-15.99,9.19c15.26,14.329,33.17,28,54.09,40.06v-125.41
		C-141.286-119.644-229.776-173.644-177.286-299.634z M-210.376-118.594l41.99,30C-168.386-88.594-186.376-64.594-210.376-118.594z"
		/>
	<path stroke="#020202" stroke-miterlimit="10" d="M-141.286-273.734v140.5C-141.286-133.234-215.176-186.234-141.286-273.734z"/>
	<path stroke="#020202" stroke-miterlimit="10" d="M-141.286-273.734v140.5C-141.286-133.234-215.176-186.234-141.286-273.734z"/>
	<path stroke="#020202" stroke-miterlimit="10" d="M-141.286-273.734v140.5C-141.286-133.234-215.176-186.234-141.286-273.734z"/>
	<path stroke="#020202" stroke-miterlimit="10" d="M-141.286-273.734v140.5C-141.286-133.234-215.176-186.234-141.286-273.734z"/>
</g>
<g>
	<path stroke="#020202" stroke-miterlimit="10" d="M-95.866-85.454h-0.01l-1.98,7.899l6.721-11.37
		C-92.776-87.444-94.356-86.314-95.866-85.454z"/>
	<path stroke="#020202" stroke-miterlimit="10" d="M-95.866-85.454h-0.01l-1.98,7.899l6.721-11.37
		C-92.776-87.444-94.356-86.314-95.866-85.454z"/>
	<path stroke="#020202" stroke-miterlimit="10" d="M-95.866-85.454h-0.01l-1.98,7.899l6.721-11.37
		C-92.776-87.444-94.356-86.314-95.866-85.454z"/>
	<path stroke="#020202" stroke-miterlimit="10" d="M-95.866-85.454h-0.01l-1.98,7.899l6.721-11.37
		C-92.776-87.444-94.356-86.314-95.866-85.454z"/>
	<path stroke="#020202" stroke-miterlimit="10" d="M-95.866-85.454h-0.01l-1.98,7.899l6.721-11.37
		C-92.776-87.444-94.356-86.314-95.866-85.454z"/>
	<path stroke="#020202" stroke-miterlimit="10" d="M-95.866-85.454h-0.01l-1.98,7.899l6.721-11.37
		C-92.776-87.444-94.356-86.314-95.866-85.454z"/>
	<path stroke="#020202" stroke-miterlimit="10" d="M-95.866-85.454h-0.01l-1.98,7.899l6.721-11.37
		C-92.776-87.444-94.356-86.314-95.866-85.454z"/>
	<path stroke="#020202" stroke-miterlimit="10" d="M-95.866-85.454h-0.01l-1.98,7.899l6.721-11.37
		C-92.776-87.444-94.356-86.314-95.866-85.454z"/>
	<path stroke="#020202" stroke-miterlimit="10" d="M-12.176-178.904c-13.33,16.67-36,17.97-36,17.97
		c12-100.7-52.61-185.2-52.61-185.2l-4.5,46.5c52.5,125.99-36,179.99-36,179.99V5.766c20.92-12.06,38.84-25.73,54.101-40.06
		l-15.99-9.19l27.75-2.51C-10.325-114.634-1.676-192.024-12.176-178.904z M-91.136-88.924l-6.721,11.37l1.98-7.899
		c-11.21,6.319-18.3-3.141-18.3-3.141l23.271-16.63l6.049-24.08v19.761l12.671-9.051C-79.096-103.054-85.506-93.974-91.136-88.924z"
		/>
	<path stroke="#020202" stroke-miterlimit="10" d="M-12.176-178.904c-13.33,16.67-36,17.97-36,17.97
		c12-100.7-52.61-185.2-52.61-185.2l-4.5,46.5c52.5,125.99-36,179.99-36,179.99V5.766c20.92-12.06,38.84-25.73,54.101-40.06
		l-15.99-9.19l27.75-2.51C-10.325-114.634-1.676-192.024-12.176-178.904z M-91.136-88.924l-6.721,11.37l1.98-7.899
		c-11.21,6.319-18.3-3.141-18.3-3.141l23.271-16.63l6.049-24.08v19.761l12.671-9.051C-79.096-103.054-85.506-93.974-91.136-88.924z"
		/>
	<path stroke="#020202" stroke-miterlimit="10" d="M-12.176-178.904c-13.33,16.67-36,17.97-36,17.97
		c12-100.7-52.61-185.2-52.61-185.2l-4.5,46.5c52.5,125.99-36,179.99-36,179.99V5.766c20.92-12.06,38.84-25.73,54.101-40.06
		l-15.99-9.19l27.75-2.51C-10.325-114.634-1.676-192.024-12.176-178.904z M-91.136-88.924l-6.721,11.37l1.98-7.899
		c-11.21,6.319-18.3-3.141-18.3-3.141l23.271-16.63l6.049-24.08v19.761l12.671-9.051C-79.096-103.054-85.506-93.974-91.136-88.924z"
		/>
	<path stroke="#020202" stroke-miterlimit="10" d="M-12.176-178.904c-13.33,16.67-36,17.97-36,17.97
		c12-100.7-52.61-185.2-52.61-185.2l-4.5,46.5c52.5,125.99-36,179.99-36,179.99V5.766c20.92-12.06,38.84-25.73,54.101-40.06
		l-15.99-9.19l27.75-2.51C-10.325-114.634-1.676-192.024-12.176-178.904z M-91.136-88.924l-6.721,11.37l1.98-7.899
		c-11.21,6.319-18.3-3.141-18.3-3.141l23.271-16.63l6.049-24.08v19.761l12.671-9.051C-79.096-103.054-85.506-93.974-91.136-88.924z"
		/>
	<path stroke="#020202" stroke-miterlimit="10" d="M-141.286-133.234v-140.5C-67.386-186.234-141.286-133.234-141.286-133.234z"/>
	<path stroke="#020202" stroke-miterlimit="10" d="M-141.286-133.234v-140.5C-67.386-186.234-141.286-133.234-141.286-133.234z"/>
	<path stroke="#020202" stroke-miterlimit="10" d="M-141.286-133.234v-140.5C-67.386-186.234-141.286-133.234-141.286-133.234z"/>
	<path stroke="#020202" stroke-miterlimit="10" d="M-141.286-133.234v-140.5C-67.386-186.234-141.286-133.234-141.286-133.234z"/>
</g>
<path fill="#FFFFFF" stroke="#020202" stroke-miterlimit="10" d="M-91.136-88.924l-6.721,11.37l1.98-7.899h0.01
	C-94.356-86.314-92.776-87.444-91.136-88.924z"/>
<path fill="#FFFFFF" stroke="#020202" stroke-miterlimit="10" d="M-91.136-88.924l-6.721,11.37l1.98-7.899h0.01
	C-94.356-86.314-92.776-87.444-91.136-88.924z"/>
</svg>
